<?xml version="1.0" encoding="utf-8"?>
<!-- Generator: Adobe Illustrator 26.5.0, SVG Export Plug-In . SVG Version: 6.00 Build 0)  -->
<svg version="1.1" id="Souletiquette" xmlns="http://www.w3.org/2000/svg" xmlns:xlink="http://www.w3.org/1999/xlink" x="0px"
	 y="0px" viewBox="0 0 840 560" style="enable-background:new 0 0 840 560;" xml:space="preserve">
<style type="text/css">
	.st0{display:none;fill:none;enable-background:new    ;}
	.st1{display:none;fill:none;stroke:#000000;stroke-width:13;}
	.st2{clip-path:url(#SVGID_00000034791196397876710400000005310771044344126085_);}
	.st3{clip-path:url(#SVGID_00000016042459092126630860000016553913007770954939_);fill-rule:evenodd;clip-rule:evenodd;}
	.st4{clip-path:url(#SVGID_00000016042459092126630860000016553913007770954939_);}
	.st5{clip-path:url(#SVGID_00000040573585830094530750000007580198550870014094_);}
</style>
<image style="display:none;overflow:visible;enable-background:new    ;" width="317" height="73" xlink:href="4E1C95A2.png"  transform="matrix(1 0 0 1 261 276)">
</image>
<path class="st0" d="M0,0"/>
<image style="display:none;overflow:visible;enable-background:new    ;" width="304" height="221" xlink:href="4E1C95A6.png"  transform="matrix(1 0 0 1 267 173)">
</image>
<path class="st0" d="M0,0"/>
<path class="st1" d="M180.8,140.3c0,0,124.9-15.3,238.8-32.3c116.5,18,239.6,32.3,239.6,32.3s12.2,61.3,24.8,124.1
	c-12.1,71.2-24.8,144.4-24.8,144.4S537.6,424,419.6,442c-116.4-16.5-238.8-33.1-238.8-33.1s-13.1-74.7-24.8-144.4
	C168.1,204.1,180.8,140.3,180.8,140.3z"/>
<g>
	<g>
		<defs>
			<rect id="SVGID_1_" x="271.1" y="102" width="296.8" height="359"/>
		</defs>
		<clipPath id="SVGID_00000068645486144698247150000018398297977239389101_">
			<use xlink:href="#SVGID_1_"  style="overflow:visible;"/>
		</clipPath>
		<g style="clip-path:url(#SVGID_00000068645486144698247150000018398297977239389101_);">
			<defs>
				<rect id="SVGID_00000093861265405787285270000007384986170334298254_" x="271.1" y="102" width="296.8" height="359"/>
			</defs>
			<clipPath id="SVGID_00000039130353493598512710000011440442710725314492_">
				<use xlink:href="#SVGID_00000093861265405787285270000007384986170334298254_"  style="overflow:visible;"/>
			</clipPath>
			
				<path style="clip-path:url(#SVGID_00000039130353493598512710000011440442710725314492_);fill-rule:evenodd;clip-rule:evenodd;" d="
				M455.8,311.5h22.6v58.2h47.7V124.7h-47.7v55.7h-22.6v-55.7l-14.8-2.4c0-5.6,0-13.5,0-20.2h122.8c0,6.3,0,15,0,20.2l-14.9,2.4
				v244.9l14.8,2.3v20.3H441c0-6.7,0-14.3,0-20.3l14.7-2.3V311.5z"/>
			
				<path style="clip-path:url(#SVGID_00000039130353493598512710000011440442710725314492_);fill-rule:evenodd;clip-rule:evenodd;" d="
				M288.3,124.7l-15.2-2.4c0-4.9,0-14.2,0-20.3h122.5c0,5.4-0.2,15.6-0.2,20.3l-13.8,2.4v56H359v-56h-48v244.9l14.1,2.3v20.3h-51.7
				c0-6.1,0-14.5,0-20.3l14.9-2.3V124.7z"/>
			
				<path style="clip-path:url(#SVGID_00000039130353493598512710000011440442710725314492_);fill-rule:evenodd;clip-rule:evenodd;" d="
				M478.4,262v22.6h-96.6v85l14,2.3c0,4.8,0,14.3,0,20.3h-51.6V372l14.9-2.3V227.3v-22.6h119.3v22.6h-96.7V262H478.4z"/>
			<path style="clip-path:url(#SVGID_00000039130353493598512710000011440442710725314492_);" d="M274.6,447.7v-29.8h20.8v5.3h-14.5
				v7.3h13.6v5.3h-13.6v11.9H274.6L274.6,447.7z M306.5,417.9v17.8c0,5.7,2.9,7.4,6.2,7.4c3.7,0,6-2,6-7.4v-17.8h6.5v17.4
				c0,10.2-6,12.8-12.5,12.8c-6.7,0-12.5-2.7-12.5-12.7v-17.6H306.5z M338.5,423.1h-9.1v-5.3H354v5.3h-9v24.5h-6.5V423.1z
				 M364.9,417.9v17.8c0,5.7,2.9,7.4,6.2,7.4c3.7,0,6-2,6-7.4v-17.8h6.5v17.4c0,10.2-6,12.8-12.5,12.8c-6.7,0-12.5-2.7-12.5-12.7
				v-17.6H364.9z M396.6,435.7v11.9h-6.3v-29.8h13.1c6.5,0,10,3.6,10,8.2c0,4-2.2,6.2-4.3,7.1c1.5,0.5,3.7,2.1,3.7,7.4v1.5
				c0,2,0,4.3,0.4,5.7h-6.1c-0.5-1.3-0.6-3.5-0.6-6.7v-0.4c0-3.3-0.8-4.8-5.6-4.8H396.6z M396.6,430.6h5.4c3.5,0,4.9-1.3,4.9-3.8
				c0-2.4-1.6-3.8-4.7-3.8h-5.6V430.6z M439.7,434.8h-14.3v7.6h15.7l-0.8,5.3h-21.2v-29.8h21.1v5.3h-14.9v6.4h14.3V434.8z"/>
		</g>
		<g style="clip-path:url(#SVGID_00000068645486144698247150000018398297977239389101_);">
			<defs>
				<rect id="SVGID_00000001627203464690482340000015829026304685593012_" x="271.1" y="102" width="296.8" height="359"/>
			</defs>
			<clipPath id="SVGID_00000005244660692868818340000013085204623109585082_">
				<use xlink:href="#SVGID_00000001627203464690482340000015829026304685593012_"  style="overflow:visible;"/>
			</clipPath>
			<path style="clip-path:url(#SVGID_00000005244660692868818340000013085204623109585082_);" d="M458.9,417.9h4.1v12.4h13.3v-12.4
				h4.2v29.8h-4.2v-13.9H463v13.9h-4.1V417.9z M493.7,439l-2.8,8.7h-4.1c1.8-5.3,7.6-23.8,9.6-29.8h5.3l10,29.8h-4.4l-2.9-8.7H493.7
				z M503.5,435.4c-2.4-7.4-3.9-11.8-4.5-14.2h-0.1c-0.8,3.5-2.3,8.1-4.3,14.2H503.5z M516.7,444.5l16.2-23.2h-15.3v-3.5h20.2v3.5
				l-16,22.8h16.6l-0.6,3.5h-21.1V444.5z M562.8,430.3v3.5h-13.3v10.4h14.7l-0.5,3.5h-18.2v-29.8h18v3.5h-13.9v8.9H562.8
				L562.8,430.3z"/>
		</g>
	</g>
</g>
</svg>
