<?xml version="1.0" encoding="UTF-8"?>
<svg id="Souletiquette" xmlns="http://www.w3.org/2000/svg" viewBox="0 0 840 560">
  <defs>
    <style>
      .cls-1 {
        fill: #eff0f0;
      }

      .cls-2 {
        fill: #e2181a;
      }
    </style>
  </defs>
  <path d="M195.94,220.82c-26.01,0-47.1,10.02-47.1,22.39v25.67c0,12.38,21.1,22.4,47.1,22.4s47.1-10.02,47.1-22.4v-25.67c-.01-12.37-21.1-22.39-47.1-22.39Z"/>
  <path class="cls-1" d="M236.69,245.33c0,10.7-18.25,19.38-40.76,19.38s-40.76-8.65-40.76-19.38,18.25-19.35,40.77-19.35,40.75,8.67,40.75,19.35Z"/>
  <path class="cls-2" d="M218.32,245.33c0,5.86-10.02,10.64-22.39,10.64s-22.39-4.78-22.39-10.64,10.02-10.64,22.39-10.64,22.39,4.78,22.39,10.64Z"/>
  <path class="cls-2" d="M209.74,245.33c0,3.62-6.19,6.56-13.81,6.56s-13.81-2.92-13.81-6.56,6.19-6.56,13.81-6.56,13.81,2.97,13.81,6.56Z"/>
  <path d="M257.07,221.53h33.26c3.27,.59,5.97,2.91,7.03,6.06,.97,2.63,1.51,5.4,1.59,8.21l-11.72,2.34c0-2.81-2.64-4.01-7.94-3.59h-9.27l28.19,27.61c2.09,2.7,2.36,7.23,.81,13.59-1.56,4.06-5.4,6.37-11.52,6.9h-22.64c-2.61-.86-4.83-2.63-6.24-4.99-1.66-2.85-2.85-5.94-3.52-9.17l12.29-4.17c.33,3.42,1.7,5.06,4.13,4.94h11.97c1.82-.42,1.52-1.73-.9-3.95l-26.25-25.66,6.41-5.11h-8.21l2.52-13Z"/>
  <path d="M319.38,220.9c-1.71,15.72-1.95,26.27-.7,31.65,.91,4.65,2.95,9.01,5.94,12.68,2.72,3.13,8.87,3.88,18.46,2.25v-45.91l13,.76v58.72l-13,1.3v-7.46l-2.34,8.11-2.83,.63c-8.41,.15-14.75-1.02-19.03-3.52s-7.81-7.57-10.61-15.24c-2.78-7.67-3.92-18.76-3.4-33.26l.76-8.3,13.74-2.44Z"/>
  <path d="M362.62,221.53h33.27c3.27,.59,5.97,2.91,7.03,6.06,.97,2.63,1.51,5.4,1.59,8.21l-11.72,2.34c0-2.81-2.65-4.01-7.94-3.59h-9.24l28.16,27.58c2.09,2.7,2.35,7.23,.8,13.59-1.56,4.06-5.4,6.37-11.51,6.9h-22.64c-2.62-.85-4.83-2.63-6.24-4.99-1.66-2.85-2.85-5.94-3.52-9.17l12.27-4.22c.33,3.42,1.7,5.06,4.13,4.94h11.97c1.81-.4,1.49-1.69-.86-3.92l-26.28-25.63,6.46-5.11h-8.21l2.46-13Z"/>
  <path d="M410.72,221.8h13.54v20.8l19.72-.13v-20.49l13.54-.08v21.1h2.34l1.08,12.32h-3.41v19.74c-.89,2.69-2.01,4.47-3.36,5.36-1.94,1.08-4.08,1.77-6.3,2.02-2.84,.46-5.71,.69-8.58,.69l-.09-11.83c2.76-.19,4.46-1.32,5.11-3.41v-12.51h-16.41l-3.59-5.69v31.99l-13.49,2.34-.09-62.23Z"/>
  <path d="M478.95,221.3v61.23h-13.54v-59.17l13.54-2.06Z"/>
  <path d="M530.94,234.4c-4.86,0-7.08,1.56-6.67,4.69,.41,3.17,3.15,4.96,8.21,5.38l24.62-.19-.36,12.02h-3.6c-.06,9.93,1.3,14.86,4.08,14.84v11.34c-9.24,1.08-14.65-4.11-16.22-15.56v-5.09l7.35-5.03-7.4-.08-17.48-.09c-.3,7.54,.34,11.82,1.9,12.9s5.52,1.17,11.86,.42l4.48,11.25c-6.7,1.67-13.7,1.73-20.43,.18-2.7-.59-5.18-1.94-7.15-3.88-2.09-2.21-3.31-5.1-3.43-8.14v-17.7c.72-4.69,2.89-6.93,6.51-6.73-3.65-.78-5.27-4.77-4.86-11.97,.41-7.2,6.7-10.96,18.89-11.29h6.06l1.61,12.73h-7.94Z"/>
  <path d="M591.96,221.67h41.24l-1.48,13.22c-7.95,4.29-14.97,10.11-20.67,17.12-5.35,6.73-8.27,12.54-8.78,17.44h18.29c2.52-.96,4.54-2.89,5.6-5.36l9.95,6.59c-2.49,5.4-5.06,8.85-7.76,10.3-3.15,1.54-6.7,2.11-10.18,1.62h-21.97c-2.04,.3-4.11-.34-5.63-1.75-1.52-1.59-2.43-3.67-2.58-5.86-.29-2.65-.2-5.33,.27-7.96,.48-2.78,2.93-7.47,7.35-14.07,4.56-6.78,10.04-12.9,16.27-18.18h-24.42l4.48-13.12Z"/>
  <path d="M652.73,221.48v5.86l3.52-5.86h29.58c3.65,1.02,5.37,6.17,5.16,15.43v40.39c-.71,3.28-3.51,5-8.38,5.16h-34.16c-5.09,.2-8.03-2.02-8.84-6.64v-51.58l13.13-2.75Zm0,13.22v34.52h25.02v-34.52h-25.02Z"/>
  <path d="M157.32,337.76c0-1.35,5.18-2.65,11.62-2.92l509.38-20.61c6.45-.24,11.89,4.78,12.16,11.23l.07,1.92c.26,6.21-4.57,11.45-10.78,11.71-.17,0-.33,.01-.5,0l-510.13,1.03c-6.45,.05-11.77-1.02-11.82-2.38Z"/>
  <path d="M682.37,301.42c0,1.34-5.18,2.65-11.62,2.91l-509.38,20.62c-6.46,.24-11.9-4.78-12.16-11.24l-.07-1.92c-.26-6.21,4.57-11.45,10.78-11.71,.17,0,.33-.01,.5,0l510.13-1.04c6.45-.02,11.77,1.07,11.82,2.4Z"/>
</svg>